<?xml version="1.0" encoding="utf-8"?>
<!-- Generator: Adobe Illustrator 22.0.1, SVG Export Plug-In . SVG Version: 6.00 Build 0)  -->
<svg version="1.1" xmlns="http://www.w3.org/2000/svg" xmlns:xlink="http://www.w3.org/1999/xlink" x="0px" y="0px"
	 viewBox="0 0 202.6 55.2" width="202.6" height="55.2" style="enable-background:new 0 0 202.6 55.2;" xml:space="preserve">
<style type="text/css">
	.st0{fill:#E51183;}
	.st1{fill:#FFFFFF;}
</style>
<g id="logo_smartesting" transform="translate(-560.5 -356.293)">
	<g id="logo_Smartesting_quadri" transform="translate(560.5 356.293)">
		<g id="Groupe_797" transform="translate(113.439 4.781)">
			<path id="Tracé_673" class="st0" d="M14.3-4.8C9.4-4.8,4.6-4.5,0-4.1l5.5,9.4c2.9-0.1,5.9-0.1,8.9-0.1c2.9,0,5.8,0,8.7,0.1
				l5.5-9.4C24-4.5,19.3-4.8,14.3-4.8"/>
		</g>
		<g id="Groupe_798" transform="matrix(0.093, 0.996, -0.996, 0.093, 166.976, 5.491)">
			<path id="Tracé_674" class="st1" d="M1.9,29.1c0.9-7.2,2-14.2,3.3-20.8L1.9-0.4c-3,7.4-5.2,15-6.7,22.9L1.9,29.1z"/>
		</g>
		<g id="Groupe_799" transform="translate(108.801 0) rotate(60.007)">
			<path id="Tracé_675" class="st1" d="M3.7,16.4C6.5,10.3,9.6,4,13.1-2.4L3.7-0.8C0.4,6.5-2.2,14-4.1,21.8L3.7,16.4z"/>
		</g>
		<g id="Groupe_800" transform="translate(0 24.569)">
			<path id="Tracé_676" class="st1" d="M18.4-0.3l1.3-3.4c-1.8-0.8-3.8-1.1-5.7-1.1C7.7-4.8,3.4-1.3,3.4,3.7c0,2.6,1.7,4.8,5.1,6.7
				c2.5,1.3,4,2.5,4,4.8c0,2.3-2,4-4.9,4l0,0c-2.2,0-4.3-0.5-6.3-1.4L0,21.2c2.2,1.1,4.5,1.7,7,1.7c6.7,0,11.1-3.5,11.1-8.9
				c0-2.7-1.7-4.9-5.4-6.9c-2-1-3.9-2.3-3.9-4.4c0-2.2,2-3.9,4.8-3.9C15.2-1.2,16.9-0.9,18.4-0.3"/>
		</g>
		<g id="Groupe_801" transform="translate(19.587 31.761)">
			<path id="Tracé_677" class="st1" d="M23-4.8c-2.3-0.1-4.6,0.5-6.6,1.7c-1.3-1.2-3-1.7-5.7-1.7c-2.5,0-4.9,0.5-7.3,1.4L0,15.1
				h4.6L7.7-1.3c0.8-0.3,1.7-0.5,2.6-0.4c4.1,0,4.2,2.2,2.8,9.1l-1.5,7.7h4.5l1.3-6.9c0.8-4.2,1-7.3,0.1-9.4
				c1.2-0.3,2.5-0.5,3.8-0.5c4.1,0,4.5,3.1,3.3,9.1l-1.5,7.7h4.6c0,0,1-5,1.4-6.9C31-1.2,28.9-4.8,23-4.8"/>
		</g>
		<g id="Groupe_802" transform="translate(51.882 31.761)">
			<path id="Tracé_678" class="st1" d="M13.3,4.1c-0.9,5-3.6,7.7-5.7,7.7c-2,0-2.8-1.7-2.8-3.7c0-4.4,3.3-9.3,7.6-9.3
				c0.6,0,1.3,0.1,1.9,0.2L13.3,4.1z M19.6-3.9c-1.9-0.6-3.9-0.9-5.9-0.9C4.6-4.8,0,2.3,0,8.9c0,3.9,2.3,6.6,5.8,6.6
				c2.5,0,4.9-1.4,6.2-3.6c0,0,0,0,0,0c0,0,0,0,0,0l-0.6,3.1h4.5C15.8,15.1,19.6-3.9,19.6-3.9"/>
		</g>
		<g id="Groupe_803" transform="translate(71.332 32.191)">
			<path id="Tracé_679" class="st1" d="M13.1-4.8c-2,0-3.9,0.9-5.1,2.5c-0.1,0.1-0.2,0.1-0.3,0c-0.1,0-0.1-0.1-0.1-0.2l0.5-2.4H3.8
				L0,14.7h4.6l1.5-7.8c0.8-4.2,3-8.1,6.3-8.1h1l0.8-3.6C14.2-4.8,13.4-4.8,13.1-4.8"/>
		</g>
		<g id="Groupe_804" transform="translate(85.736 27.209)">
			<path id="Tracé_680" class="st1" d="M8.3-4.8l-1,5h4.4L11,3.8H6.7l-1.6,7.9c-0.2,0.9-0.3,1.8-0.3,2.7c-0.1,0.8,0.4,1.6,1.3,1.8
				c0.1,0,0.3,0,0.4,0c0.5,0,1.1,0,1.6-0.1l-0.7,3.8c-0.9,0.2-1.8,0.3-2.7,0.3c-3.2,0-4.6-1.8-4.6-4c0-1.2,0.2-2.4,0.4-3.6l1.7-8.7
				l0.7-3.6l0.7-3.6L8.3-4.8z"/>
		</g>
		<g id="Groupe_805" transform="translate(97.472 31.761)">
			<path id="Tracé_681" class="st1" d="M12.9,0.7c0-1.2-1-2-2.5-2c-2.9,0-4.8,2.6-5.4,5C9.8,3.7,12.9,3,12.9,0.7L12.9,0.7z
				 M14.9,14c-2.1,1-4.5,1.6-6.9,1.6c-5.4,0-8-3.3-8-8.1C0,1.6,4.3-4.8,11-4.8c3.8,0,6.3,2.2,6.3,5.5c0,5-5.2,6.6-12.7,6.4
				C4.5,8.1,4.7,9,5.1,9.9c0.9,1.4,2.4,2.1,4,2c1.9,0,3.7-0.4,5.4-1.3L14.9,14z"/>
		</g>
		<g id="Groupe_806" transform="translate(115.029 31.761)">
			<path id="Tracé_682" class="st1" d="M1.2,10.8c1.4,0.8,3,1.2,4.7,1.3c1.9,0,3-1.1,3-2.4c0-1.2-0.6-2-2.6-3
				C4.1,5.5,2.5,3.8,2.5,1.6c0-3.8,3.3-6.4,7.9-6.4c1.6-0.1,3.2,0.3,4.6,1l-1.2,3.4c-1.1-0.6-2.4-0.9-3.6-0.9c-1.8,0-3,1-3,2.3
				c0,1.1,0.9,1.8,2.5,2.7c2.1,1.2,4,2.8,4,5.2c0,4.3-3.6,6.7-8.3,6.7c-1.9,0-3.8-0.5-5.4-1.4L1.2,10.8z"/>
		</g>
		<g id="Groupe_807" transform="translate(131.396 27.209)">
			<path id="Tracé_683" class="st1" d="M3.5-3.4l4.8-1.4l-1,5h4.4L11,3.8H6.7l-1.6,7.9c-0.2,0.9-0.3,1.8-0.3,2.7
				c-0.1,0.8,0.4,1.6,1.3,1.8c0.1,0,0.3,0,0.4,0c0.5,0,1.1,0,1.6-0.1l-0.7,3.8c-0.9,0.2-1.8,0.3-2.7,0.3c-3.2,0-4.6-1.8-4.6-4
				c0-1.2,0.2-2.4,0.4-3.6L3.5-3.4z"/>
		</g>
		<g id="Groupe_808" transform="translate(143.11 24.093)">
			<path id="Tracé_684" class="st1" d="M6.8,0.5c-1.3,0-2.3-1-2.4-2.3c0-0.1,0-0.1,0-0.2c0-1.5,1.2-2.8,2.7-2.8c0,0,0.1,0,0.1,0
				c1.3,0,2.4,1,2.5,2.3c0,0.1,0,0.1,0,0.2c0,1.5-1.2,2.8-2.7,2.8C6.9,0.5,6.9,0.5,6.8,0.5L6.8,0.5z M0,22.8L3.7,3.3h4.6L4.6,22.8H0
				z"/>
		</g>
		<g id="Groupe_809" transform="translate(151.603 31.761)">
			<path id="Tracé_685" class="st1" d="M13.7,7.3c1.3-6.9,0.6-9.1-3.4-9.1c-0.9,0-1.8,0.1-2.6,0.4L4.6,15.1H0L3.4-3.4
				c2.3-0.9,4.8-1.3,7.3-1.4c7.2,0,9.1,4,7.4,12.9l-1.3,6.9h-4.5L13.7,7.3z"/>
		</g>
		<g id="Groupe_810" transform="translate(172.002 31.761)">
			<path id="Tracé_686" class="st1" d="M15.2-0.7c-0.8-0.3-1.7-0.5-2.6-0.5c-4.1,0-6.9,4.4-6.9,8.6c0,2,0.8,4,3.1,4
				s4.6-2.8,5.3-6.3L15.2-0.7z M1.1,18.6c1.6,0.8,3.4,1.2,5.2,1.2c3,0,5.4-1.4,6.3-6l0.5-2.2H13C11.7,13.7,9.4,15,6.9,15
				C3,15,0.8,11.8,0.8,8.2c0-6.5,4.7-12.9,12.7-12.9c2.3,0,4.6,0.5,6.8,1.4l-3,16.1c-0.7,3.8-1.8,6.8-4,8.7
				c-2.1,1.5-4.6,2.3-7.2,2.2C4,23.5,1.9,23.1,0,22.1L1.1,18.6z"/>
		</g>
		<g id="Groupe_811" transform="translate(196.141 23.936)">
			<path id="Tracé_687" class="st1" d="M2.7-1.8h0.5c0.4,0,0.9,0,0.9-0.5S3.6-2.9,3.1-2.8H2.7V-1.8z M2-3.4h1.4
				c0.9,0,1.3,0.4,1.3,1.1c0,0.5-0.3,1-0.8,1c0,0,0,0,0,0l1,1.6H4.1L3.2-1.2H2.7v1.5H2L2-3.4z M3.2,1.1c1.5,0,2.6-1.2,2.6-2.6
				S4.7-4.2,3.2-4.2S0.6-3,0.6-1.6S1.8,1.1,3.2,1.1 M3.2-4.8c1.8,0,3.2,1.4,3.2,3.2c0,1.8-1.4,3.2-3.2,3.2C1.4,1.6,0,0.2,0-1.6
				C0-3.3,1.4-4.8,3.2-4.8"/>
		</g>
	</g>
</g>
</svg>
